<svg xmlns="http://www.w3.org/2000/svg" viewBox="0 0 777.4 216.41"><defs><style>.cls-1{fill:#10cfc8;}.cls-2{fill:#193d45;}</style></defs><g id="Layer_2" data-name="Layer 2"><g id="Layer_1-2" data-name="Layer 1"><polygon class="cls-1" points="98.4 140.03 98.4 152.76 111.13 152.76 111.13 165.49 123.91 165.49 123.91 178.22 136.64 178.22 136.64 190.95 136.59 190.95 136.59 203.68 123.91 203.68 123.91 216.41 81.48 216.41 81.48 203.68 68.75 203.68 68.75 190.95 56.02 190.95 56.02 178.22 43.29 178.22 43.29 152.76 30.56 152.76 30.56 127.3 17.83 127.3 17.83 101.84 17.78 101.84 17.78 89.11 30.56 89.11 30.56 76.38 43.24 76.38 43.24 63.65 55.97 63.65 55.97 50.92 111.18 50.92 111.18 63.65 123.91 63.65 123.91 76.38 136.59 76.38 136.59 89.11 136.64 89.11 136.64 101.84 123.91 101.84 123.91 114.57 111.18 114.57 111.18 127.3 98.45 127.3 98.45 140.03 98.4 140.03"/><rect class="cls-1" x="7.63" y="53.42" width="15.26" height="15.26"/><rect class="cls-1" y="76.38" width="7.63" height="7.56"/><rect class="cls-1" x="22.89" y="22.89" width="22.89" height="22.89"/><rect class="cls-1" x="61.05" width="30.52" height="30.52"/><rect class="cls-1" x="106.89" width="38.19" height="38.19"/><path class="cls-2" d="M181.13,51.84H205V73.48h-23.9Zm0,34.38H205V178h-23.9Z"/><path class="cls-2" d="M234.79,168.41q-10.9-11.68-10.91-36.3,0-24.42,10.91-36.21t32.89-11.78q18.33,0,29.23,9.34t10.91,27.31H283.74q0-8.37-4.37-12.91t-12.21-4.54q-9.78,0-14.4,6.89t-4.62,20.51v2.79q0,13.61,4.8,20.5t15.44,6.9q7.5,0,11.95-4.63t4.45-12.82h23q0,18-10.82,27.31t-29.32,9.33Q245.69,180.1,234.79,168.41Z"/><path class="cls-2" d="M326.66,51.84h23.91v45h1.22a33.24,33.24,0,0,1,26.87-12.74q14.14,0,22.25,7.68T409,116.41V178H385.12V121.47q0-8.55-4-12.39t-11.87-3.84a17.55,17.55,0,0,0-13.35,5.67,19.73,19.73,0,0,0-5.32,14V178H326.66Z"/><path class="cls-2" d="M433.28,86.22H453.7l1.74,12h1.22q11.18-14.13,28.62-14.14,14.14,0,22.25,7.68t8.12,24.61V178H491.74V121.47q0-8.55-4-12.39t-11.87-3.84a17.55,17.55,0,0,0-13.35,5.67,19.73,19.73,0,0,0-5.32,14V178H433.28Z"/><path class="cls-2" d="M539.9,51.84h23.91V73.48H539.9Zm0,34.38h23.91V178H539.9Z"/><path class="cls-2" d="M594.17,168.41q-11.52-11.68-11.52-36.3t11.52-36.29q11.52-11.7,35.07-11.7t35.17,11.7Q676,107.51,676,132.11t-11.6,36.3q-11.61,11.68-35.17,11.69T594.17,168.41Zm52-14.57q5.24-6.72,5.24-20.33v-2.79q0-13.62-5.24-20.33t-16.93-6.72q-11.68,0-16.83,6.72t-5.15,20.33v2.79q0,13.61,5.15,20.33t16.83,6.72Q640.94,160.56,646.17,153.84Z"/><path class="cls-2" d="M695,86.22h20.42l1.74,12h1.22Q729.59,84.13,747,84.12q14.15,0,22.25,7.68t8.12,24.61V178H753.49V121.47q0-8.55-4-12.39t-11.87-3.84a17.55,17.55,0,0,0-13.35,5.67,19.73,19.73,0,0,0-5.32,14V178H695Z"/></g></g></svg>