<svg xmlns="http://www.w3.org/2000/svg" viewBox="0 0 500 500"><defs><style>.cls-1{fill:#193d45;}.cls-2{fill:#10cfc8;}</style></defs><g id="Layer_2" data-name="Layer 2"><g id="Layer_1-2" data-name="Layer 1"><rect class="cls-1" width="500" height="500"/><polygon class="cls-2" points="291.61 301.3 291.61 321.78 312.09 321.78 312.09 342.26 332.65 342.26 332.65 362.74 353.13 362.74 353.13 383.22 353.05 383.22 353.05 403.7 332.65 403.7 332.65 424.18 264.38 424.18 264.38 403.7 243.9 403.7 243.9 383.22 223.42 383.22 223.42 362.74 202.94 362.74 202.94 321.78 182.46 321.78 182.46 280.82 161.98 280.82 161.98 239.85 161.9 239.85 161.9 219.37 182.46 219.37 182.46 198.89 202.86 198.89 202.86 178.41 223.34 178.41 223.34 157.93 312.17 157.93 312.17 178.41 332.65 178.41 332.65 198.89 353.05 198.89 353.05 219.37 353.13 219.37 353.13 239.85 332.65 239.85 332.65 260.34 312.17 260.34 312.17 280.82 291.69 280.82 291.69 301.3 291.61 301.3"/><rect class="cls-2" x="145.57" y="161.95" width="24.55" height="24.55"/><rect class="cls-2" x="133.29" y="198.89" width="12.28" height="12.17"/><rect class="cls-2" x="170.13" y="112.84" width="36.83" height="36.83"/><rect class="cls-2" x="231.51" y="76.01" width="49.11" height="49.11"/><rect class="cls-2" x="305.26" y="76.01" width="61.44" height="61.44"/></g></g></svg>